<svg width="56" height="56" fill="none" xmlns="http://www.w3.org/2000/svg"><path d="M36.78 53.071V28.386a.516.516 0 01.512-.519H34.01a.516.516 0 00-.511.52V53.07a.516.516 0 00.511.519h3.282a.516.516 0 01-.512-.519z" fill="#D4E1F4"/><path d="M40.075 1.094H7.351c-1.58 0-2.867 1.246-2.867 2.778v48.256c0 1.532 1.286 2.779 2.867 2.779l26.66-.004a.657.657 0 000-1.313l-26.66.004c-.857 0-1.554-.657-1.554-1.466V3.872c0-.808.697-1.466 1.554-1.466h32.724c.857 0 1.553.658 1.553 1.466v23.339a.656.656 0 001.313 0V3.872c0-1.532-1.286-2.778-2.866-2.778z" fill="#262626"/><path d="M17.262 8.324a.657.657 0 10.967-.888 6.562 6.562 0 00-4.791-2.11h-.004a.656.656 0 00-.003 1.313 5.247 5.247 0 013.831 1.685z" fill="#262626"/><path d="M11.512 5.61a6.294 6.294 0 00-4.29 4.335 5.954 5.954 0 00.257 3.905 6.265 6.265 0 003.338 3.33 6.627 6.627 0 004.783.19 6.477 6.477 0 002.428-1.486 6.011 6.011 0 001.223-6.947.654.654 0 00-1.087-.158.657.657 0 00-.094.73 4.701 4.701 0 01-.955 5.433 5.17 5.17 0 01-1.94 1.186c-2.567.88-5.476-.369-6.485-2.784a4.654 4.654 0 01-.202-3.053 4.985 4.985 0 013.41-3.427.656.656 0 10-.385-1.255z" fill="#262626"/><path d="M10.272 10.096a3.267 3.267 0 00-.128 2.556c.506 1.388 1.862 2.26 3.306 2.26a3.6 3.6 0 001.142-.187 3.434 3.434 0 002.025-1.77 3.267 3.267 0 00.128-2.555c-.639-1.752-2.634-2.682-4.448-2.073a3.434 3.434 0 00-2.025 1.77zm3.173-.644a2.182 2.182 0 012.067 1.397 1.965 1.965 0 01-.078 1.537 2.131 2.131 0 01-1.26 1.094c-1.145.385-2.4-.189-2.797-1.278a1.966 1.966 0 01.078-1.537 2.132 2.132 0 011.26-1.094c.235-.079.482-.12.73-.12zm-1.489 18.536c1.373.053 1.701 1.1 1.735 1.225a.656.656 0 001.273-.322 3.047 3.047 0 00-2.457-2.162v-.555a.656.656 0 00-1.313 0v.56a2.595 2.595 0 00-1.35.68c-.78.762-.826 1.806-.821 2.108.018 1.209.957 2.227 2.284 2.475l.12.023.277.051a3.137 3.137 0 01.227.065.694.694 0 00.025.01l.175.064.038.016c.081.04.106.054.16.084l.107.06.022.013c.105.061 1.028.62 1.062 1.389.019.44-.093.776-.343 1.028-.434.434-1.168.525-1.534.51-.519-.02-1.531-.45-1.618-1.195a.656.656 0 10-1.303.151c.082.705.503 1.339 1.187 1.786.392.253.828.43 1.285.521v.456a.656.656 0 101.312 0v-.487a3.149 3.149 0 001.6-.816c.51-.51.76-1.206.725-2.012-.06-1.395-1.322-2.237-1.715-2.466l-.052-.032-.094-.051a3.522 3.522 0 00-.224-.118 1.689 1.689 0 00-.162-.069l-.164-.06a3.474 3.474 0 00-.48-.137l-.27-.051-.121-.023c-.828-.155-1.206-.717-1.214-1.205-.005-.35.104-.834.427-1.149.269-.263.67-.386 1.194-.365zm25.706-12.58h-2.875a.876.876 0 00-.875.875v8.638a.876.876 0 00.875.875h2.875a.876.876 0 00.875-.875v-8.638a.876.876 0 00-.875-.875zm-.438 9.075h-2v-7.762h2v7.762zm-4.447.437V13.29a.876.876 0 00-.875-.876h-2.874a.876.876 0 00-.875.875v11.632a.876.876 0 00.875.875h2.875a.876.876 0 00.874-.875zm-1.312-.437h-2V13.727h2v10.756zm-5.322 1.313a.876.876 0 00.875-.875V10.828a.876.876 0 00-.875-.875H23.27a.876.876 0 00-.875.875v14.093a.876.876 0 00.875.875h2.874zm-2.437-14.53h2v13.217h-2V11.266zm15.205-.589H35.14L27.8 4.685l1.8.106a.656.656 0 10.076-1.31l-3.2-.189a.857.857 0 00-.909.77.654.654 0 00-.016.243l-.176 2.75a.656.656 0 101.31.083l.1-1.586 7.663 6.255.054.04a.865.865 0 00.478.142h3.931a.656.656 0 000-1.312zM28.695 41.393H8.765a.657.657 0 000 1.313h19.93a.656.656 0 100-1.313zm0 7.448H8.765a.657.657 0 000 1.313h19.93a.656.656 0 100-1.313zm0-3.724H8.765a.657.657 0 000 1.313h19.93a.656.656 0 100-1.313zm0-7.448H17.964a.656.656 0 000 1.312h10.73a.656.656 0 100-1.312zm0-3.724H17.964a.657.657 0 000 1.313h10.73a.656.656 0 100-1.313z" fill="#262626"/><path d="M51.455 28.386a1.83 1.83 0 00-1.824-1.831H34.01a1.83 1.83 0 00-1.825 1.831v24.685a1.83 1.83 0 001.824 1.831h15.765a1.74 1.74 0 001.74-1.75l-.06-11.35V28.387zm-1.377 25.078a.425.425 0 01-.303.126H34.01a.516.516 0 01-.511-.519V28.386a.517.517 0 01.511-.519h15.62a.516.516 0 01.512.52v13.42l.061 11.352a.424.424 0 01-.125.305z" fill="#FF5E5E"/><path d="M35.17 35.95h13.46a.876.876 0 00.875-.875v-5.37a.876.876 0 00-.875-.875H35.17a.876.876 0 00-.875.875v5.37a.876.876 0 00.875.875zm.438-5.808h12.584v4.496H35.608v-4.496zm13.191 7.468h-13.74a.762.762 0 00-.764.759v13.187a.76.76 0 00.76.758l4.52.027.042.002.032-.001 9.035.054a.867.867 0 00.88-.851V38.369a.762.762 0 00-.765-.758zm-8.526 9.175v-3.431h3.196v3.431h-3.196zm3.196 1.313v2.954l-3.196-.02v-2.934h3.196zm-7.861-4.744h3.352v3.431h-3.352v-3.431zm4.665-1.313v-3.117h3.196v3.117h-3.196zm4.509 1.313h3.469v3.431h-3.47v-3.431zm3.469-1.313h-3.47v-3.117h3.47v3.117zm-9.29-3.117v3.117h-3.353v-3.117h3.352zm-3.353 9.174h3.352v2.927l-3.352-.02v-2.907zm9.174 2.962v-2.962h3.469v2.983l-3.47-.021z" fill="#FF5E5E"/></svg>