<svg width="56" height="56" fill="none" xmlns="http://www.w3.org/2000/svg"><path d="M12.66 16.505v-2.527a3.356 3.356 0 012.379-3.206 3.338 3.338 0 00-.971-.144h-.4a3.354 3.354 0 00-3.35 3.35v2.527a3.354 3.354 0 003.35 3.35h.4c.329 0 .656-.048.97-.144a3.356 3.356 0 01-2.378-3.206zm13.515-2.059v-2.885a3.935 3.935 0 012.985-3.813 3.923 3.923 0 00-.943-.115h-.456a3.932 3.932 0 00-3.928 3.928v2.886a3.932 3.932 0 003.928 3.928h.456c.318 0 .635-.04.943-.116a3.934 3.934 0 01-2.985-3.813zm14.599 2.059v-2.527a3.356 3.356 0 012.38-3.206 3.34 3.34 0 00-.972-.144h-.4a3.354 3.354 0 00-3.35 3.35v2.527a3.354 3.354 0 003.35 3.35h.4c.33 0 .656-.048.971-.144a3.356 3.356 0 01-2.379-3.206zm-29.719 6.863a4.83 4.83 0 01-.627-.6 4.111 4.111 0 00-3.643 4.06v4.081h2.342v-4.082a4.103 4.103 0 011.928-3.459zm14.114-.888a5.396 5.396 0 01-1.084-.967 4.798 4.798 0 00-4.304 4.742v7.193h3.513v-7.193a4.775 4.775 0 011.875-3.774zm14.666 1.444a4.793 4.793 0 01-1.294-1.047 4.024 4.024 0 00-1.63.54c.455.877.692 1.85.692 2.838v4.764h2.693v-4.764c0-.8-.157-1.591-.46-2.33z" fill="#D4E1F4"/><path d="M28.01 6.302a5.468 5.468 0 00-5.462 5.462v2.403a5.462 5.462 0 1010.924 0v-2.403a5.468 5.468 0 00-5.462-5.462zm4.149 7.864a4.154 4.154 0 01-4.15 4.15 4.154 4.154 0 01-4.149-4.15v-2.402a4.15 4.15 0 118.3 0l-.001 2.402zM18.432 33.99a.656.656 0 00.656.657h17.843a.656.656 0 00.656-.656v-1.747h12.288a.656.656 0 00.656-.657v-4.732a5.394 5.394 0 00-5.054-5.379c-.346-.023-.526.196-.685.39a3.419 3.419 0 01-5.394-.132.66.66 0 00-.544-.267 5.334 5.334 0 00-2.7.804 6.048 6.048 0 00-4.26-2.143c-.343-.018-.515.19-.697.412a4 4 0 01-6.31-.155.659.659 0 00-.545-.266 6.03 6.03 0 00-4.485 2.16 5.358 5.358 0 00-2.512-.803c-.346-.024-.526.196-.685.39a3.42 3.42 0 01-5.394-.132.66.66 0 00-.544-.267 5.39 5.39 0 00-5.253 5.388v4.732a.656.656 0 00.656.657h12.307v1.747zM38.57 22.8a4.73 4.73 0 007.135.017 4.082 4.082 0 013.513 4.038v4.076H37.587v-4.75a6.03 6.03 0 00-.697-2.82 4.016 4.016 0 011.68-.562zm-14.515-1.35a5.314 5.314 0 008.075.018 4.757 4.757 0 014.144 4.713v7.153h-16.53v-7.153a4.753 4.753 0 014.311-4.731zM6.781 30.931v-4.076A4.105 4.105 0 0110.44 22.8a4.733 4.733 0 007.135.017 4.051 4.051 0 011.547.552 6.037 6.037 0 00-.69 2.812v4.75H6.782z" fill="#262626"/><path d="M42.066 21.202a4.868 4.868 0 004.862-4.863v-2.103a4.863 4.863 0 00-9.725 0v2.103a4.868 4.868 0 004.863 4.863zm-3.55-6.966a3.55 3.55 0 017.1 0v2.103a3.554 3.554 0 01-3.55 3.55 3.555 3.555 0 01-3.55-3.55v-2.103zM13.934 9.373a4.868 4.868 0 00-4.863 4.863v2.103a4.862 4.862 0 009.726 0v-2.103a4.868 4.868 0 00-4.863-4.863zm3.55 6.966a3.55 3.55 0 01-7.1 0v-2.103a3.55 3.55 0 017.1 0v2.103z" fill="#262626"/><path d="M28.464 37.227a.657.657 0 00-.928 0l-3.186 3.186a.654.654 0 00-.004.931.656.656 0 00.932-.003l1.953-1.953v9.356a.657.657 0 001.313 0v-9.581l2.178 2.178a.656.656 0 10.928-.928l-3.186-3.186zm-18.45 10.307a.656.656 0 00.656-.656v-3.057l6.514 5.714a.655.655 0 001.023-.784.656.656 0 00-.157-.203l-6.293-5.52h2.762a.657.657 0 000-1.312h-4.505l-.02.001a.42.42 0 00-.067.006l-.03.004a.658.658 0 00-.21.078c-.008.005-.019.01-.028.017-.01.006-.017.01-.025.017l-.027.02a.688.688 0 00-.047.041l-.026.026-.013.014-.006.007a.62.62 0 00-.04.052l-.019.03-.015.025-.015.03-.014.028-.011.03-.011.03-.009.03-.008.032-.005.03-.006.034-.002.028a.592.592 0 00-.002.037v4.515a.656.656 0 00.656.656zm36.625-5.062v-.008a.632.632 0 00-.01-.064l-.004-.016a.613.613 0 00-.012-.046l-.01-.026a.505.505 0 00-.028-.066.62.62 0 00-.046-.08l-.008-.013a.722.722 0 00-.03-.04l-.002-.002-.015-.017-.027-.029a.34.34 0 00-.025-.022l-.022-.02-.03-.022-.021-.016a.688.688 0 00-.056-.032l-.03-.015-.029-.013-.027-.01-.033-.011-.028-.007-.034-.008c-.012-.003-.021-.003-.031-.005l-.032-.004c-.014-.002-.028-.002-.041-.002l-.021-.001H41.48a.656.656 0 100 1.312h2.702l-6.38 5.35a.657.657 0 00.843 1.006l6.684-5.606v3.099a.657.657 0 001.313 0V42.53a.725.725 0 00-.003-.058z" fill="#FF5E5E"/></svg>