<svg width="56" height="56" fill="none" xmlns="http://www.w3.org/2000/svg"><path d="M27.23 30.785h-3.282v21.168h3.282V30.785zm13.457-9.709h-3.282v30.877h3.282V21.076zM53.186 10.79l.4 41.163h-3.28l-.401-41.163h3.281zM13.339 39.377l.16 12.576h-3.281l-.16-12.576h3.28z" fill="#D4E1F4"/><path d="M1.75 38.065h11.58v-7.936a.656.656 0 01.657-.657H27.23V20.42a.656.656 0 01.656-.656h12.8v-9.63a.656.656 0 01.657-.656h12.493a.656.656 0 01.657.65l.413 42.475a.655.655 0 01-.656.663H1.75a.656.656 0 01-.656-.657V38.721a.656.656 0 01.656-.656zm12.893-7.28v7.936l.169 13.232H27.23V30.785H14.643zm13.9-9.708v30.876h12.144V21.077H28.543zM53.186 10.79H42v41.163h11.588l-.4-41.163zM2.406 51.953H13.5l-.16-12.576H2.406v12.576z" fill="#262626"/><path d="M1.524 29.597a77.2 77.2 0 004.933-2c11.435-5.104 21.633-13.024 30.33-23.55H32.73a.656.656 0 010-1.313h5.439l.023.002.038.001.03.004.033.006a.553.553 0 01.032.007l.03.008.033.01.029.01.032.016.026.012.032.019.023.014a.62.62 0 01.032.023l.018.013.003.003c.01.008.02.016.028.025.007.006.015.012.021.019l.016.017c.037.04.07.084.096.131l.002.004c.006.01.011.022.016.033l.012.026.005.013c.018.046.03.093.038.142l.005.029.001.025.002.04v5.518a.656.656 0 11-1.312 0V5.225c-8.765 10.513-19.024 18.439-30.52 23.57a78.033 78.033 0 01-5.018 2.034.656.656 0 11-.45-1.232z" fill="#FF5E5E"/></svg>