<svg width="56" height="56" fill="none" xmlns="http://www.w3.org/2000/svg"><path d="M26.56 28.58a13.688 13.688 0 019.12-21.96 13.833 13.833 0 00-1.704-.106 13.688 13.688 0 101.735 27.27 13.66 13.66 0 01-9.15-5.203z" fill="#D4E1F4"/><path d="M51.99 50.7h-8.58l.063-19.126a.683.683 0 00-.68-.683h-.002a.681.681 0 00-.681.679l-.064 19.13h-6.82V34.577a.682.682 0 00-1.363 0V50.7h-4.6V33.524a.681.681 0 00-1.363 0V50.7h-6.82l-.055-26a.68.68 0 00-.682-.68h-.001a.68.68 0 00-.68.683l.054 25.996h-4.599V12.117a1.078 1.078 0 00-1.071-1.082H6.641a1.078 1.078 0 00-1.071 1.082V50.7H1.363V3.68A.681.681 0 000 3.68v47.435a.946.946 0 00.943.947H51.99a.681.681 0 000-1.363zM6.933 12.397h6.822V50.7H6.933V12.397z" fill="#262626"/><path d="M42.654 32.519l4.664 6a2.54 2.54 0 00.02 3.087l3.978 5.138a2.545 2.545 0 104.028-3.115l-3.977-5.138a2.55 2.55 0 00-2.968-.8l-4.667-6.004a15.05 15.05 0 002.174-20.697c-5.082-6.567-14.562-7.776-21.132-2.696a15.06 15.06 0 0017.88 24.225zm7.635 6.805l3.978 5.139a1.184 1.184 0 11-1.874 1.447l-3.977-5.138a1.184 1.184 0 111.873-1.448zM23.154 28.581a13.72 13.72 0 1110.853 5.309 13.596 13.596 0 01-10.853-5.31z" fill="#FF5E5E"/><path d="M34.905 12.529v-1.122a.682.682 0 00-1.363 0v1.124a3.432 3.432 0 00-1.957.932c-1.1 1.07-1.165 2.591-1.159 3.032.024 1.684 1.282 3.106 3.06 3.459l.183.037.385.076c.065.013.218.06.29.082a.757.757 0 01.11.042l.251.098c.027.01.053.022.078.035.122.063.154.082.24.133l.133.078.03.02.026.016c.27.166 1.615 1.061 1.669 2.38.032.79-.179 1.417-.628 1.865-.603.602-1.608.84-2.335.808-.845-.036-2.426-.767-2.571-2.095a.68.68 0 00-.753-.614.683.683 0 00-.602.763c.21 1.916 2.1 3.075 3.55 3.278v.966a.681.681 0 001.363 0v-1.01c.798-.138 1.658-.48 2.31-1.131.72-.719 1.076-1.717 1.028-2.885-.08-1.953-1.785-3.156-2.317-3.486l-.05-.031-.02-.013-.136-.08a4.937 4.937 0 00-.309-.171 2.172 2.172 0 00-.21-.095l-.239-.094a2.126 2.126 0 00-.218-.08 4.52 4.52 0 00-.429-.116l-.377-.075-.187-.037c-1.337-.265-1.949-1.266-1.961-2.14-.009-.626.183-1.488.746-2.037.436-.424 1.056-.622 1.849-.59a2.872 2.872 0 012.732 2.09.681.681 0 101.326-.314 4.215 4.215 0 00-3.538-3.098z" fill="#FF5E5E"/></svg>