<svg width="56" height="56" fill="none" xmlns="http://www.w3.org/2000/svg"><path d="M46.616 10.06a6.56 6.56 0 01-2.596-5.71c.139-.02.277-.037.417-.052l4.021-.45-.21-1.426-6.983.782c-.14.015-.278.033-.417.052a6.56 6.56 0 002.595 5.712 6.734 6.734 0 003.61 1.4 7.304 7.304 0 01-.438-.306zM16.978 36.28l1.116-1.652-2.302-1.756-1.206 1.55 2.392 1.858zm.682-4.958L34.7 9.108a14.325 14.325 0 015.027-3.574 7.72 7.72 0 01-.205-2.045c-3.176.692-5.97 2.264-7.994 4.525l-17.04 22.214 15.573 11.875.64-.836-13.04-9.946z" fill="#D4E1F4"/><path d="M37.184 16.775c-3.23-2.463-7.885-1.866-10.375 1.332a7.285 7.285 0 001.346 10.287 7.458 7.458 0 0010.375-1.332 7.287 7.287 0 00-1.346-10.287zm.31 9.48a6.141 6.141 0 01-8.543 1.096 5.972 5.972 0 01-1.106-8.437 6.141 6.141 0 018.543-1.095 5.974 5.974 0 011.107 8.437z" fill="#FF5E5E"/><path d="M35.125 19.419a4.058 4.058 0 00-5.645.726 3.97 3.97 0 00.733 5.605 4.058 4.058 0 005.645-.725 3.97 3.97 0 00-.733-5.606zm-.302 4.8a2.741 2.741 0 01-3.814.488 2.657 2.657 0 01-.493-3.756 2.741 2.741 0 013.814-.488 2.66 2.66 0 01.493 3.756zm-20.876 9.956a.656.656 0 00-.921.114l-7.473 9.6a.655.655 0 101.036.806l7.473-9.6a.656.656 0 00-.115-.92zM18.5 54.768a.656.656 0 00.922-.115l7.473-9.599a.656.656 0 10-1.036-.806l-7.472 9.599a.656.656 0 00.114.92zm1.19-5.552a.655.655 0 00.519-.253l3.066-3.939a.657.657 0 10-1.035-.806l-3.066 3.939a.655.655 0 00.517 1.06zm-2.678 2.786a.656.656 0 00.92-.115l.884-1.134a.656.656 0 00-1.036-.806l-.883 1.134a.656.656 0 00.115.921zm1.514-10.616l-5.938 7.627a.656.656 0 101.036.806l5.938-7.627a.657.657 0 00-1.036-.806zm-4.356-1.711a.656.656 0 00.921-.114l.38-.488a.657.657 0 10-1.036-.806l-.38.487a.657.657 0 00.115.921zm-2.408 3.093a.654.654 0 00.92-.114l.3-.383a.657.657 0 00-1.036-.806l-.299.382a.656.656 0 00.115.921zm-1.071 1.376a.656.656 0 00-.92.114l-.663.852a.656.656 0 101.035.806l.663-.851a.657.657 0 00-.115-.921z" fill="#FF5E5E"/><path d="M49.526 2.079A1.181 1.181 0 0048.25 1.1l-7.13.797a18.67 18.67 0 00-.962.135h-.002c-3.83.632-7.22 2.43-9.623 5.125l-8.523 11.11-13.858-1.91a.874.874 0 00-.965 1.089.86.86 0 00.315.465l9.326 7.111-4.182 5.45 2.103 1.604-2.013 2.585 13.961 10.646 2.012-2.585 1.597 1.217 4.182-5.45 8.58 6.543a.876.876 0 001.377-.471.86.86 0 00-.043-.56L39.38 32.12l7.95-10.359.023-.032c2.687-3.973 3.75-8.978 2.994-14.095l-.82-5.554zm-8.26 1.124l6.983-.782.799 5.404c.113.766.183 1.538.21 2.312-1.985.567-4.08.151-5.814-1.17a6.559 6.559 0 01-2.594-5.712c.138-.019.277-.037.417-.052zM9.635 17.887l11.457 1.58-3.465 4.515-7.992-6.095zm16.826 25.59l-11.874-9.055 1.207-1.55 11.873 9.055-1.206 1.55zm16.087-.492l-7.26-5.536 3.172-4.133 4.088 9.67zm3.729-22.008L30.06 42.103 14.49 30.228 31.53 8.014c2.024-2.26 4.817-3.833 7.994-4.525a7.88 7.88 0 003.125 6.522 8.056 8.056 0 004.883 1.677c.581 0 1.162-.067 1.728-.198-.114 3.464-1.133 6.743-2.984 9.487z" fill="#262626"/></svg>