<svg width="77" height="77" fill="none" xmlns="http://www.w3.org/2000/svg"><path d="M36.599 40.454a19.028 19.028 0 01-3.781-9.105 19.07 19.07 0 011.276-9.783 18.957 18.957 0 015.988-7.815 18.8 18.8 0 019.081-3.733 18.949 18.949 0 00-2.347-.148c-2.575.006-5.12.541-7.482 1.574a18.862 18.862 0 00-6.246 4.43 18.992 18.992 0 00-3.986 6.56 19.074 19.074 0 00.95 15.026 18.952 18.952 0 004.78 5.999 18.824 18.824 0 006.755 3.598c2.471.724 5.064.93 7.619.608a18.746 18.746 0 01-7.022-2.336 18.854 18.854 0 01-5.585-4.875z" fill="#D4E1F4"/><path d="M71.638 71.111H59.815l.087-26.507a.95.95 0 00-.577-.875.933.933 0 00-.359-.073h-.003c-.248 0-.486.1-.662.276a.948.948 0 00-.277.665l-.087 26.514h-9.399V48.766a.949.949 0 00-.275-.668.936.936 0 00-1.602.668V71.11h-6.339V47.306c0-.25-.098-.49-.275-.668a.936.936 0 00-1.602.668V71.11h-9.4l-.075-36.033c0-.25-.1-.49-.275-.667a.936.936 0 00-.663-.276h-.003a.933.933 0 00-.866.585.951.951 0 00-.07.362l.074 36.03h-6.336V17.635a1.5 1.5 0 00-.43-1.057 1.482 1.482 0 00-1.047-.443H9.151c-.393.002-.77.162-1.047.443a1.499 1.499 0 00-.43 1.057V71.11H1.879V5.944c0-.25-.099-.49-.275-.667A.936.936 0 000 5.944v65.744c0 .347.136.68.38.926a1.3 1.3 0 00.919.386h70.34c.248 0 .487-.1.663-.277a.948.948 0 000-1.335.936.936 0 00-.664-.277zM9.553 18.025h9.4V71.11h-9.4V18.025z" fill="#262626"/><path d="M58.775 45.913l6.427 8.317a3.535 3.535 0 00.028 4.278l5.48 7.122a3.516 3.516 0 002.333 1.347 3.49 3.49 0 002.595-.709 3.522 3.522 0 001.334-2.348 3.548 3.548 0 00-.71-2.609l-5.48-7.12a3.513 3.513 0 00-1.86-1.245 3.495 3.495 0 00-2.23.135l-6.43-8.321a20.896 20.896 0 007.221-13.738 20.946 20.946 0 00-4.226-14.948c-7.003-9.1-20.066-10.777-29.119-3.737a20.899 20.899 0 00-7.809 13.624 20.964 20.964 0 003.862 15.24 20.73 20.73 0 0013.34 8.202c5.339.88 10.81-.372 15.244-3.49zm10.522 9.433l5.48 7.122a1.648 1.648 0 01-.293 2.301 1.624 1.624 0 01-2.289-.295l-5.48-7.122a1.648 1.648 0 01.293-2.302 1.624 1.624 0 012.289.296zm-37.39-14.891a19.089 19.089 0 01-3.968-11.877 19.084 19.084 0 014.24-11.781 18.89 18.89 0 0110.605-6.572 18.806 18.806 0 0112.367 1.491 18.963 18.963 0 018.761 8.907 19.117 19.117 0 011.351 12.455 19.03 19.03 0 01-6.646 10.597 18.836 18.836 0 01-11.757 4.139 18.647 18.647 0 01-8.334-1.918 18.758 18.758 0 01-6.62-5.442z" fill="#FF5E5E"/><path d="M48.1 18.208v-1.555c0-.25-.1-.49-.276-.667a.936.936 0 00-1.603.667v1.557a4.718 4.718 0 00-2.697 1.292c-1.516 1.484-1.605 3.592-1.596 4.203.033 2.334 1.766 4.305 4.215 4.794l.253.05.53.107c.09.017.3.082.4.113.04.012.077.026.114.042l.037.016.346.136c.037.014.073.03.107.049.169.087.213.114.332.185l.182.108.042.027.036.023c.371.23 2.224 1.47 2.3 3.298.044 1.094-.247 1.963-.866 2.584-.83.835-2.215 1.164-3.218 1.12-1.163-.05-3.342-1.063-3.542-2.903a.948.948 0 00-.67-.818.935.935 0 00-1.17.653.95.95 0 00-.027.37c.29 2.657 2.893 4.263 4.892 4.544v1.34c0 .25.1.49.275.667a.936.936 0 001.603-.668v-1.398c1.1-.193 2.285-.668 3.184-1.57.992-.995 1.48-2.378 1.415-3.998-.111-2.706-2.459-4.374-3.193-4.83l-.067-.044-.029-.018-.187-.11a6.754 6.754 0 00-.426-.238 2.95 2.95 0 00-.29-.132l-.329-.13a2.906 2.906 0 00-.3-.11 6.182 6.182 0 00-.591-.16l-.52-.105-.257-.052c-1.843-.367-2.686-1.755-2.703-2.967-.012-.866.252-2.061 1.029-2.822.6-.587 1.454-.862 2.547-.817a3.94 3.94 0 012.361.819 3.982 3.982 0 011.404 2.077.935.935 0 001.713.278.949.949 0 00.114-.713 5.85 5.85 0 00-1.787-2.894 5.795 5.795 0 00-3.088-1.4z" fill="#FF5E5E"/></svg>