<svg width="77" height="77" fill="none" xmlns="http://www.w3.org/2000/svg"><path d="M18.135 38.5c0-12.956 9.957-23.629 22.62-24.773a25.116 25.116 0 00-2.256-.103c-13.717 0-24.876 11.159-24.876 24.876s11.16 24.876 24.876 24.876c.76 0 1.513-.036 2.256-.103-12.663-1.144-22.62-11.817-22.62-24.773z" fill="#D4E1F4"/><path d="M38.499 65.18c14.712 0 26.68-11.968 26.68-26.68S53.212 11.82 38.5 11.82 11.82 23.788 11.82 38.5 23.788 65.18 38.5 65.18zm0-51.556c13.717 0 24.876 11.159 24.876 24.876s-11.16 24.876-24.876 24.876c-13.717 0-24.876-11.16-24.876-24.876 0-13.717 11.16-24.876 24.876-24.876z" fill="#262626"/><path d="M38.5 58.59c11.078 0 20.09-9.013 20.09-20.09 0-11.078-9.012-20.09-20.09-20.09-11.077 0-20.09 9.012-20.09 20.09s9.013 20.09 20.09 20.09zm0-38.376A18.285 18.285 0 1120.216 38.5 18.306 18.306 0 0138.5 20.214z" fill="#262626"/><path d="M38.5 45.164a6.664 6.664 0 10-6.664-6.664 6.671 6.671 0 006.664 6.664zm0-11.523a4.86 4.86 0 110 9.718 4.86 4.86 0 010-9.718zm-.068 14.886a.902.902 0 00-.903.897l-.158 25.164a.902.902 0 00.897.908h.006a.903.903 0 00.902-.896l.158-25.165a.9.9 0 00-.896-.908h-.006zm.133-20.361h.005a.902.902 0 00.903-.897l.156-24.857a.902.902 0 00-1.805-.011l-.156 24.857a.903.903 0 00.897.908zM27.502 38.57a.904.904 0 00-.908-.897l-24.193.152a.902.902 0 10.005 1.805h.006l24.194-.152a.9.9 0 00.896-.909zm47.092-1.2h-.005l-25.48.16a.903.903 0 00.005 1.805h.006l25.48-.16a.902.902 0 10-.005-1.805z" fill="#FF5E5E"/></svg>