<svg width="77" height="77" fill="none" xmlns="http://www.w3.org/2000/svg"><path d="M10.363 54.854v-41.11H7.355v41.11a2.108 2.108 0 002.106 2.105h3.008a2.108 2.108 0 01-2.106-2.105zM6.316 9.692a2.25 2.25 0 012.248-2.248H5.556a2.248 2.248 0 000 4.496h3.008a2.25 2.25 0 01-2.248-2.248z" fill="#D4E1F4"/><path d="M71.474 5.444H5.587a4.053 4.053 0 00-.006 8.105v41.11a3.914 3.914 0 003.91 3.91h28.137v4.246a4.232 4.232 0 101.805 0v-4.246H67.57a3.914 3.914 0 003.91-3.91v-41.11a4.052 4.052 0 00-.006-8.105zM40.957 66.941a2.426 2.426 0 11-4.852.016 2.426 2.426 0 014.853-.016zM67.57 56.764H9.49a2.108 2.108 0 01-2.105-2.105v-41.11h62.29v41.11a2.108 2.108 0 01-2.105 2.105zm3.904-45.02H5.587a2.248 2.248 0 110-4.495h65.887a2.248 2.248 0 010 4.496z" fill="#262626"/><path d="M61.736 54.473a.902.902 0 000-1.805h-2.135V23.345a1.204 1.204 0 00-1.203-1.203h-5.712a1.205 1.205 0 00-1.203 1.203v29.323h-2.794V26.352a1.204 1.204 0 00-1.204-1.203h-5.711a1.204 1.204 0 00-1.203 1.203v26.316h-2.795V29.36a1.204 1.204 0 00-1.203-1.203h-5.712a1.205 1.205 0 00-1.203 1.203v23.308h-2.794v-20a1.205 1.205 0 00-1.203-1.202H19.95a1.205 1.205 0 00-1.203 1.203v20h-4.508V17.783a.903.903 0 00-1.805 0v36.689h49.303zm-8.449-30.527h4.509v28.722h-4.509V23.946zm-10.912 3.008h4.509v25.714h-4.509V26.954zm-10.912 3.008h4.509v22.706h-4.509V29.962zM20.551 33.27h4.509v19.398h-4.51V33.27z" fill="#FF5E5E"/><path d="M18.808 28.955h6.574c.156 0 .31-.03.455-.09l23.957-9.773h9.773a.902.902 0 000-1.804h-9.89c-.156 0-.31.03-.455.089L25.265 27.15h-6.457a.902.902 0 000 1.805z" fill="#FF5E5E"/></svg>