<svg width="77" height="77" fill="none" xmlns="http://www.w3.org/2000/svg"><path d="M37.524 42.03h-4.16v26.84h4.16V42.03zm17.061-12.309h-4.16V68.87h4.16V29.72zM70.433 16.68l.508 52.189h-4.16l-.508-52.188h4.16zM19.912 52.924l.203 15.945h-4.16l-.203-15.945h4.16z" fill="#D4E1F4"/><path d="M5.219 51.26H19.9V41.2a.832.832 0 01.832-.832h16.79V28.89a.832.832 0 01.833-.832h16.229v-12.21a.832.832 0 01.832-.831h15.84a.832.832 0 01.832.824l.524 53.852a.83.83 0 01-.832.84H5.22a.832.832 0 01-.832-.832V52.093a.832.832 0 01.832-.833zm16.346-9.23v10.063l.214 16.776h15.745V42.031H21.565zm17.623-12.308v39.147h15.397V29.722H39.188zM70.433 16.68H56.249v52.188H70.94l-.508-52.188zM6.05 68.869h14.064l-.203-15.944H6.051v15.944z" fill="#262626"/><path d="M4.933 40.525a97.596 97.596 0 006.255-2.536c14.498-6.471 27.427-16.512 38.454-29.858h-5.145a.832.832 0 010-1.664h6.896l.03.001.048.003c.013 0 .025.003.038.005l.042.006a.693.693 0 01.04.01l.04.01a.965.965 0 01.04.013l.036.013a.58.58 0 01.041.019l.033.016a.694.694 0 01.041.023l.03.018a.77.77 0 01.04.03l.023.016.004.004.036.031.026.025.02.02a.88.88 0 01.122.168l.003.004a.652.652 0 01.02.042l.015.033.006.017a.833.833 0 01.048.18l.006.036.002.032.003.052v6.994a.832.832 0 01-1.664 0V9.625C39.449 22.953 26.442 33.003 11.866 39.51a98.697 98.697 0 01-6.361 2.578.832.832 0 11-.572-1.562z" fill="#FF5E5E"/></svg>