<svg width="32" height="32" fill="none" xmlns="http://www.w3.org/2000/svg"><circle cx="15.616" cy="15.616" r="15.616" fill="#5181B8"/><path fill-rule="evenodd" clip-rule="evenodd" d="M22.8 11.758c.114-.398 0-.676-.528-.676h-1.764c-.454 0-.655.252-.769.53 0 0-.894 2.307-2.167 3.792-.415.437-.592.57-.819.57-.113 0-.277-.133-.277-.53v-3.686c0-.477-.126-.676-.504-.676h-2.771a.445.445 0 00-.454.424c0 .451.63.557.706 1.803v2.73c0 .598-.101.703-.328.703-.592 0-2.054-2.306-2.91-4.957-.177-.49-.34-.703-.794-.703H7.657c-.504 0-.605.252-.605.53 0 .49.592 2.93 2.785 6.151 1.461 2.2 3.515 3.394 5.38 3.394 1.12 0 1.26-.265 1.26-.716v-1.67c0-.53.1-.637.465-.637.265 0 .706.133 1.752 1.194 1.197 1.259 1.398 1.829 2.066 1.829h1.764c.504 0 .756-.265.604-.782-.163-.517-.73-1.273-1.486-2.174-.416-.517-1.033-1.06-1.21-1.34-.264-.357-.189-.516 0-.821 0-.013 2.155-3.195 2.369-4.282z" fill="#fff"/></svg>