<svg width="32" height="32" fill="none" xmlns="http://www.w3.org/2000/svg"><circle cx="16.247" cy="15.616" r="15.616" fill="url(#paint0_linear)"/><path d="M22.745 9.111a8.743 8.743 0 00-6.21-2.562c-4.838 0-8.776 3.919-8.778 8.736 0 1.54.403 3.043 1.172 4.367L7.683 24.18l4.654-1.215a8.805 8.805 0 004.195 1.063h.003c4.839 0 8.777-3.92 8.78-8.736 0-2.335-.912-4.53-2.57-6.181zm-6.21 13.442h-.003a7.3 7.3 0 01-3.713-1.012l-.267-.158-2.761.721.737-2.68-.174-.274a7.219 7.219 0 01-1.115-3.865c.001-4.003 3.275-7.26 7.3-7.26a7.26 7.26 0 015.158 2.129 7.2 7.2 0 012.135 5.137c-.002 4.004-3.275 7.262-7.297 7.262zm4.003-5.439c-.22-.109-1.298-.637-1.5-.71-.2-.073-.346-.11-.493.11-.146.218-.566.71-.694.855-.128.146-.256.164-.475.055-.22-.11-.927-.34-1.764-1.084-.652-.578-1.093-1.293-1.22-1.512-.128-.218-.014-.336.096-.445.098-.098.219-.255.329-.383.11-.127.146-.218.219-.364.073-.146.037-.273-.018-.382-.055-.11-.494-1.184-.677-1.621-.178-.426-.358-.368-.493-.375a8.738 8.738 0 00-.42-.008.807.807 0 00-.586.274c-.2.218-.767.746-.767 1.82 0 1.075.786 2.113.896 2.259.11.146 1.546 2.35 3.747 3.296.523.225.931.36 1.25.46a3.022 3.022 0 001.382.086c.421-.062 1.297-.528 1.48-1.038.183-.51.183-.947.128-1.038-.055-.09-.2-.145-.42-.255z" fill="#fff"/><defs><linearGradient id="paint0_linear" x1="16.247" y1="0" x2="16.247" y2="31.232" gradientUnits="userSpaceOnUse"><stop stop-color="#61FD7D"/><stop offset="1" stop-color="#2BB826"/></linearGradient></defs></svg>