<svg width="32" height="32" fill="none" xmlns="http://www.w3.org/2000/svg"><path d="M15.876 31.232c8.624 0 15.616-6.991 15.616-15.616C31.492 6.992 24.5 0 15.876 0 7.25 0 .26 6.992.26 15.616c0 8.625 6.991 15.616 15.616 15.616z" fill="#34AADF"/><path d="M6.759 15.48s7.808-3.204 10.516-4.332c1.038-.452 4.558-1.896 4.558-1.896s1.625-.632 1.49.903c-.046.632-.407 2.843-.768 5.235-.541 3.385-1.128 7.086-1.128 7.086s-.09 1.038-.857 1.219c-.768.18-2.032-.632-2.257-.813-.18-.135-3.385-2.166-4.559-3.16-.316-.27-.676-.812.046-1.444a172.87 172.87 0 004.738-4.513c.542-.541 1.084-1.805-1.173-.27-3.204 2.21-6.364 4.287-6.364 4.287s-.722.451-2.076.045-2.933-.948-2.933-.948-1.084-.677.767-1.399z" fill="#fff"/></svg>