<svg width="373" height="216" fill="none" xmlns="http://www.w3.org/2000/svg"><g filter="url(#filter0_d)"><rect width="334.999" height="175" rx="10.434" transform="matrix(-1 0 0 1 354 0)" fill="#292929"/></g><path opacity=".2" d="M320.834 161.996H48.064" stroke="#B8B8B8" stroke-width=".373"/><path opacity=".79" d="M278.55 123.682l40.408 24.127 2.245 2.194v12.163H47.969V45.916L67.53 58.478h27.58l19.563 4.586 16.035 1.596 27.58 36.689 24.693-4.586 33.353 13.758 18.6-4.586h6.735l8.018 21.137 28.862-3.39z" fill="url(#paint0_linear)"/><path opacity=".79" d="M47.969 46.63L67.53 59.152h27.58l19.563 4.572 16.035 1.59 27.58 36.578 24.693-4.572 33.353 13.717 18.6-4.572h6.735l8.018 21.071 28.862-3.379 40.408 24.054 2.245 2.187" stroke="#FF6D6D" stroke-width="1.863"/><path opacity=".2" d="M184.228 33.435v128.731M47.968 33.435v128.731m273.235-64.544H47.969" stroke="#B8B8B8" stroke-width=".373"/><g filter="url(#filter1_d)"><ellipse rx="5.7" ry="5.894" transform="matrix(-1 0 0 1 184.556 98.167)" fill="url(#paint1_linear)"/></g><path opacity=".2" d="M320.835 33.44v128.556" stroke="#B8B8B8" stroke-width=".373"/><g filter="url(#filter2_d)"><ellipse rx="5.765" ry="5.749" transform="matrix(-1 0 0 1 319.719 145.806)" fill="url(#paint2_linear)"/></g><path d="M50.698 26.518H49.06V17.18h6.398v1.442h-4.76v7.896zm8.769.168c-.896 0-1.62-.369-2.17-1.106v3.514h-1.47v-9.338h1.47v.924c.541-.728 1.265-1.092 2.17-1.092.887 0 1.605.317 2.156.952.56.635.84 1.498.84 2.59 0 1.092-.28 1.96-.84 2.604-.55.635-1.27.952-2.156.952zm-.434-1.302c.579 0 1.04-.21 1.386-.63.345-.42.518-.961.518-1.624 0-.663-.173-1.2-.518-1.61-.345-.42-.807-.63-1.386-.63-.336 0-.667.089-.994.266-.327.177-.574.392-.742.644v2.674c.168.252.415.467.742.644s.658.266.994.266zm10.488 1.134h-1.47v-.728c-.523.597-1.25.896-2.184.896a2.504 2.504 0 01-1.638-.588c-.476-.401-.714-.952-.714-1.652 0-.719.233-1.265.7-1.638a2.6 2.6 0 011.652-.56c.961 0 1.69.29 2.184.868v-1.008c0-.392-.145-.7-.434-.924-.29-.224-.672-.336-1.148-.336-.756 0-1.424.285-2.002.854l-.602-1.022c.765-.728 1.712-1.092 2.842-1.092.83 0 1.507.196 2.03.588.522.392.784 1.013.784 1.862v4.48zm-3.08-.84c.737 0 1.274-.233 1.61-.7v-1.022c-.336-.467-.873-.7-1.61-.7-.42 0-.766.112-1.036.336a1.09 1.09 0 00-.406.882c0 .364.135.658.406.882.27.215.616.322 1.036.322zm5.49-5.124c.466-.644 1.073-.966 1.82-.966.746 0 1.353.369 1.82 1.106V17.18h1.47v3.5c.457-.728 1.064-1.092 1.82-1.092.746 0 1.353.317 1.82.952.466.635.7 1.498.7 2.59 0 1.092-.234 1.96-.7 2.604-.467.635-1.074.952-1.82.952-.747 0-1.354-.369-1.82-1.106v3.514h-1.47v-3.5c-.458.728-1.064 1.092-1.82 1.092-.747 0-1.354-.317-1.82-.952-.467-.635-.7-1.498-.7-2.59 0-1.092.233-1.955.7-2.59zm2.282.336c-.448 0-.812.21-1.092.63-.271.42-.406.961-.406 1.624 0 .663.135 1.204.406 1.624.28.41.644.616 1.092.616.26 0 .518-.089.77-.266.26-.177.457-.392.588-.644V21.8a1.753 1.753 0 00-.588-.644 1.325 1.325 0 00-.77-.266zm4.186 4.494c.448 0 .807-.21 1.078-.63.28-.42.42-.961.42-1.624 0-.663-.14-1.2-.42-1.61-.271-.42-.63-.63-1.078-.63-.262 0-.523.089-.784.266a1.794 1.794 0 00-.574.644v2.674c.13.252.322.467.574.644.26.177.522.266.784.266zm6.104 1.134h-1.414v-6.762h1.47v4.55l3.108-4.55h1.47v6.762h-1.47v-4.676l-3.164 4.676zm12.87 0h-1.847l-2.072-2.786-.938.966v1.82h-1.47v-6.762h1.47v3.262l2.982-3.262h1.82l-2.814 3.066 2.87 3.696zm10.112-.882h-1.386l-2.24-2.52 2.24-2.478h1.386l-2.24 2.478 2.24 2.52zm-2.38 0h-1.386l-2.24-2.52 2.24-2.478h1.386l-2.24 2.478 2.24 2.52zm9.075 2.604v-1.722h-5.32v-6.762h1.47v5.474h3.108v-5.474h1.47v5.474h.742v3.01h-1.47zm5.8-1.554c-1.026 0-1.876-.327-2.548-.98-.662-.663-.994-1.521-.994-2.576 0-.99.322-1.825.966-2.506.654-.69 1.475-1.036 2.464-1.036.999 0 1.802.345 2.408 1.036.616.69.924 1.573.924 2.646v.35h-5.222c.056.532.276.975.658 1.33.383.355.882.532 1.498.532.346 0 .691-.065 1.036-.196.355-.13.649-.313.882-.546l.672.966c-.681.653-1.596.98-2.744.98zm1.792-4.102a1.93 1.93 0 00-.518-1.246c-.317-.364-.779-.546-1.386-.546-.578 0-1.031.182-1.358.546-.326.355-.508.77-.546 1.246h3.808zm4.349 3.934h-1.47v-6.762h1.47v2.66h3.108v-2.66h1.47v6.762h-1.47v-2.814h-3.108v2.814zm12.087 0h-1.47v-.728c-.522.597-1.25.896-2.184.896a2.504 2.504 0 01-1.638-.588c-.476-.401-.714-.952-.714-1.652 0-.719.234-1.265.7-1.638a2.601 2.601 0 011.652-.56c.962 0 1.69.29 2.184.868v-1.008c0-.392-.144-.7-.434-.924-.289-.224-.672-.336-1.148-.336-.756 0-1.423.285-2.002.854l-.602-1.022c.766-.728 1.713-1.092 2.842-1.092.831 0 1.508.196 2.03.588.523.392.784 1.013.784 1.862v4.48zm-3.08-.84c.738 0 1.274-.233 1.61-.7v-1.022c-.336-.467-.872-.7-1.61-.7-.42 0-.765.112-1.036.336-.27.224-.406.518-.406.882s.136.658.406.882c.271.215.616.322 1.036.322zm11.018 1.008c-1.326 0-2.362-.364-3.108-1.092l.686-.938c.616.55 1.423.826 2.422.826.513 0 .914-.08 1.204-.238.298-.168.448-.392.448-.672 0-.588-.593-.882-1.778-.882h-1.442v-1.176h1.442c.513 0 .914-.075 1.204-.224.298-.15.448-.369.448-.658 0-.243-.154-.443-.462-.602-.308-.159-.696-.238-1.162-.238-.906 0-1.629.27-2.17.812l-.728-.896c.718-.737 1.661-1.106 2.828-1.106.998-.01 1.782.154 2.352.49.578.327.868.775.868 1.344 0 .43-.182.793-.546 1.092-.355.29-.77.467-1.246.532a2.62 2.62 0 011.316.476c.41.28.616.663.616 1.148 0 .588-.29 1.069-.868 1.442-.57.373-1.344.56-2.324.56zm10.273-.168h-1.47v-.728c-.522.597-1.25.896-2.184.896a2.504 2.504 0 01-1.638-.588c-.476-.401-.714-.952-.714-1.652 0-.719.234-1.265.7-1.638a2.601 2.601 0 011.652-.56c.962 0 1.69.29 2.184.868v-1.008c0-.392-.144-.7-.434-.924-.289-.224-.672-.336-1.148-.336-.756 0-1.423.285-2.002.854l-.602-1.022c.766-.728 1.713-1.092 2.842-1.092.831 0 1.508.196 2.03.588.523.392.784 1.013.784 1.862v4.48zm-3.08-.84c.738 0 1.274-.233 1.61-.7v-1.022c-.336-.467-.872-.7-1.61-.7-.42 0-.765.112-1.036.336-.27.224-.406.518-.406.882s.136.658.406.882c.271.215.616.322 1.036.322zm6.428.84h-1.68l1.666-2.52a1.999 1.999 0 01-1.148-.7c-.289-.364-.434-.826-.434-1.386 0-.607.196-1.115.588-1.526.401-.42.952-.63 1.652-.63h3.864v6.762h-1.47v-2.45h-1.554l-1.484 2.45zm.826-3.738h2.212v-1.736h-2.212c-.28 0-.504.084-.672.252a.809.809 0 00-.252.616c0 .261.079.471.238.63.168.159.397.238.686.238zm9.724 3.738h-4.144v-6.762h4.046c.625 0 1.115.163 1.47.49.354.327.532.742.532 1.246 0 .392-.108.723-.322.994-.215.27-.486.453-.812.546.364.084.667.285.91.602.242.308.364.658.364 1.05 0 .541-.182.985-.546 1.33-.355.336-.854.504-1.498.504zm-.308-1.288c.261 0 .466-.065.616-.196a.732.732 0 00.224-.56.744.744 0 00-.224-.546c-.15-.15-.355-.224-.616-.224h-2.366v1.526h2.366zm-.042-2.814c.233 0 .415-.06.546-.182.14-.13.21-.294.21-.49 0-.215-.07-.383-.21-.504-.131-.13-.313-.196-.546-.196h-2.324v1.372h2.324zm10.545 4.102h-1.848l-2.072-2.786-.938.966v1.82h-1.47v-6.762h1.47v3.262l2.982-3.262h1.82l-2.814 3.066 2.87 3.696zm2.456 0h-1.414v-6.762h1.47v4.55l3.108-4.55h1.47v6.762h-1.47v-4.676l-3.164 4.676zm9.637-3.402l-2.24 2.52h-1.386l2.24-2.52-2.24-2.478h1.386l2.24 2.478zm2.38 0l-2.24 2.52h-1.386l2.24-2.52-2.24-2.478h1.386l2.24 2.478zm9.115 3.402h-4.144v-6.762h4.046c.625 0 1.115.163 1.47.49.355.327.532.742.532 1.246 0 .392-.107.723-.322.994-.215.27-.485.453-.812.546.364.084.667.285.91.602.243.308.364.658.364 1.05 0 .541-.182.985-.546 1.33-.355.336-.854.504-1.498.504zm-.308-1.288c.261 0 .467-.065.616-.196a.732.732 0 00.224-.56.744.744 0 00-.224-.546c-.149-.15-.355-.224-.616-.224h-2.366v1.526h2.366zm-.042-2.814c.233 0 .415-.06.546-.182.14-.13.21-.294.21-.49 0-.215-.07-.383-.21-.504-.131-.13-.313-.196-.546-.196h-2.324v1.372h2.324zm14.323 4.102h-6.762V25.23c1.951-1.475 3.276-2.567 3.976-3.276.71-.719 1.064-1.395 1.064-2.03 0-.457-.168-.807-.504-1.05-.326-.252-.723-.378-1.19-.378-1.026 0-1.866.373-2.52 1.12l-.952-1.078a3.845 3.845 0 011.512-1.106 4.896 4.896 0 011.932-.392c.952 0 1.755.257 2.408.77.654.513.98 1.218.98 2.114 0 .803-.336 1.6-1.008 2.394-.672.793-1.698 1.713-3.08 2.758h4.144v1.442zm6.857-.252c-.495.28-1.055.42-1.68.42-.626 0-1.186-.14-1.68-.42a3.223 3.223 0 01-1.176-1.12 5.651 5.651 0 01-.658-1.54 6.735 6.735 0 01-.224-1.75c0-.607.074-1.19.224-1.75a5.44 5.44 0 01.658-1.526 3.22 3.22 0 011.176-1.12c.494-.28 1.054-.42 1.68-.42.625 0 1.185.14 1.68.42.494.28.886.653 1.176 1.12a5.5 5.5 0 01.658 1.526c.149.56.224 1.143.224 1.75s-.075 1.19-.224 1.75a5.713 5.713 0 01-.658 1.54c-.29.467-.682.84-1.176 1.12zm-3.248-1.988c.336.635.858.952 1.568.952.709 0 1.232-.317 1.568-.952.336-.635.504-1.442.504-2.422 0-.625-.066-1.18-.196-1.666a2.484 2.484 0 00-.672-1.204c-.318-.327-.719-.49-1.204-.49-.486 0-.892.163-1.218.49a2.62 2.62 0 00-.672 1.204 6.863 6.863 0 00-.182 1.666c0 .98.168 1.787.504 2.422zm10.208 2.24h-1.638v-7.21l-1.526 1.582-.952-.994 2.688-2.716h1.428v9.338zm5.417.168c-.663 0-1.246-.126-1.75-.378a3.167 3.167 0 01-1.204-1.064 5.031 5.031 0 01-.672-1.512 7.296 7.296 0 01-.224-1.862c0-1.41.359-2.567 1.078-3.472.718-.905 1.731-1.358 3.038-1.358 1.082 0 1.978.345 2.688 1.036l-.77 1.246a2.543 2.543 0 00-1.918-.826c-.747 0-1.344.299-1.792.896-.448.597-.672 1.325-.672 2.184 0 .121.004.21.014.266.233-.345.578-.649 1.036-.91a2.912 2.912 0 011.47-.392c.886 0 1.628.266 2.226.798.597.523.896 1.26.896 2.212 0 .887-.318 1.633-.952 2.24-.635.597-1.466.896-2.492.896zm-.084-1.456c.578 0 1.036-.163 1.372-.49.336-.336.504-.714.504-1.134 0-.541-.182-.952-.546-1.232-.364-.29-.822-.434-1.372-.434-.392 0-.77.103-1.134.308a2.664 2.664 0 00-.91.798c.056.597.252 1.11.588 1.54.336.43.835.644 1.498.644zm13.74-5.474v1.288h-3.654v5.474h-1.47v-6.762h5.124zm4.258 6.93c-1.046 0-1.886-.34-2.52-1.022-.635-.69-.952-1.535-.952-2.534 0-.999.317-1.839.952-2.52.634-.681 1.474-1.022 2.52-1.022 1.054 0 1.899.34 2.534 1.022.634.681.952 1.521.952 2.52 0 1.008-.318 1.853-.952 2.534-.635.681-1.48 1.022-2.534 1.022zm0-1.302c.606 0 1.082-.215 1.428-.644.354-.439.532-.975.532-1.61 0-.625-.178-1.153-.532-1.582-.346-.439-.822-.658-1.428-.658-.598 0-1.074.22-1.428.658-.346.43-.518.957-.518 1.582 0 .635.172 1.171.518 1.61.354.43.83.644 1.428.644zm4.273 2.856V25.3c.318-.075.556-.257.714-.546.168-.299.304-.868.406-1.708l.406-3.29h5.222v5.474h.742v3.01h-1.47v-1.722h-4.55v1.722h-1.47zm2.828-7.196l-.238 2.17c-.093.896-.392 1.568-.896 2.016h3.584v-4.186h-2.45zm5.576 8.12l.224-1.316c.168.075.355.112.56.112.476 0 .798-.196.966-.588l.336-.77-2.772-6.846h1.568l1.974 5.068 1.974-5.068h1.582l-3.262 7.98c-.401.999-1.176 1.507-2.324 1.526a3.2 3.2 0 01-.826-.098z" fill="#fff"/><defs><linearGradient id="paint0_linear" x1="184.586" y1="45.916" x2="184.586" y2="162.166" gradientUnits="userSpaceOnUse"><stop stop-color="#FF6D6D"/><stop offset="1" stop-color="#FF6D6D" stop-opacity="0"/></linearGradient><linearGradient id="paint1_linear" x1="11.4" y1="7.171" x2="-.036" y2="5.003" gradientUnits="userSpaceOnUse"><stop stop-color="#FFA5A5"/><stop offset=".589" stop-color="#FF8484"/><stop offset="1" stop-color="#FF6D6D"/></linearGradient><linearGradient id="paint2_linear" x1="11.531" y1="6.994" x2="-.006" y2="4.726" gradientUnits="userSpaceOnUse"><stop stop-color="#FFA5A5"/><stop offset="1" stop-color="#FF6D6D"/></linearGradient><filter id="filter0_d" x=".369" y="0" width="372.263" height="215.617" filterUnits="userSpaceOnUse" color-interpolation-filters="sRGB"><feFlood flood-opacity="0" result="BackgroundImageFix"/><feColorMatrix in="SourceAlpha" values="0 0 0 0 0 0 0 0 0 0 0 0 0 0 0 0 0 0 127 0" result="hardAlpha"/><feMorphology radius="18.632" in="SourceAlpha" result="effect1_dropShadow"/><feOffset dy="21.985"/><feGaussianBlur stdDeviation="18.632"/><feColorMatrix values="0 0 0 0 0 0 0 0 0 0 0 0 0 0 0 0 0 0 1 0"/><feBlend in2="BackgroundImageFix" result="effect1_dropShadow"/><feBlend in="SourceGraphic" in2="effect1_dropShadow" result="shape"/></filter><filter id="filter1_d" x="163.951" y="82.958" width="41.211" height="41.598" filterUnits="userSpaceOnUse" color-interpolation-filters="sRGB"><feFlood flood-opacity="0" result="BackgroundImageFix"/><feColorMatrix in="SourceAlpha" values="0 0 0 0 0 0 0 0 0 0 0 0 0 0 0 0 0 0 127 0" result="hardAlpha"/><feOffset dy="5.59"/><feGaussianBlur stdDeviation="7.453"/><feColorMatrix values="0 0 0 0 1 0 0 0 0 0.426758 0 0 0 0 0.426758 0 0 0 0.4 0"/><feBlend in2="BackgroundImageFix" result="effect1_dropShadow"/><feBlend in="SourceGraphic" in2="effect1_dropShadow" result="shape"/></filter><filter id="filter2_d" x="299.049" y="130.741" width="41.342" height="41.308" filterUnits="userSpaceOnUse" color-interpolation-filters="sRGB"><feFlood flood-opacity="0" result="BackgroundImageFix"/><feColorMatrix in="SourceAlpha" values="0 0 0 0 0 0 0 0 0 0 0 0 0 0 0 0 0 0 127 0" result="hardAlpha"/><feOffset dy="5.59"/><feGaussianBlur stdDeviation="7.453"/><feColorMatrix values="0 0 0 0 1 0 0 0 0 0.426758 0 0 0 0 0.426758 0 0 0 0.4 0"/><feBlend in2="BackgroundImageFix" result="effect1_dropShadow"/><feBlend in="SourceGraphic" in2="effect1_dropShadow" result="shape"/></filter></defs></svg>