<svg width="999" height="580" fill="none" xmlns="http://www.w3.org/2000/svg"><g filter="url(#filter0_d)"><rect width="899" height="471" rx="28" transform="matrix(-1 0 0 1 949 0)" fill="#292929"/></g><path opacity=".2" d="M860 436H128" stroke="#B8B8B8"/><path opacity=".79" d="M792.499 335.5l62.464 62.317 6.024 5.903v32.737H127.738V171.5l54.761 44.5 75.5-30.5 60 19.5 47-19.5 65.5 41.5h91l86.5-30.5 37 49.5 65.5 26.773 25 62.727h57z" fill="url(#paint0_linear)"/><path opacity=".79" d="M126.999 171.511l57 44.489 73-29 60.5 17.5 49-17.5 64 40h92l86-31.5 36.5 49 64 25.5 25.5 64.161h56.5l63.964 64.739 6.024 5.885" stroke="#FF6D6D" stroke-width="5"/><path opacity=".2" d="M493.403 89.987v346.47M127.739 89.987v346.47m733.248-173.715H127.738" stroke="#B8B8B8"/><g filter="url(#filter1_d)"><ellipse rx="15.296" ry="15.863" transform="matrix(-1 0 0 1 493.296 225.863)" fill="url(#paint1_linear)"/></g><path opacity=".2" d="M860 90v346" stroke="#B8B8B8"/><g filter="url(#filter2_d)"><circle r="15.472" transform="matrix(-1 0 0 1 857.007 392.424)" fill="url(#paint2_linear)"/></g><path d="M132.512 56h-2.808V39.992h10.968v2.472h-8.16V56zm15.032.288c-1.536 0-2.776-.632-3.72-1.896v6.024h-2.52V44.408h2.52v1.584c.928-1.248 2.168-1.872 3.72-1.872 1.52 0 2.752.544 3.696 1.632.96 1.088 1.44 2.568 1.44 4.44 0 1.872-.48 3.36-1.44 4.464-.944 1.088-2.176 1.632-3.696 1.632zm-.744-2.232c.992 0 1.784-.36 2.376-1.08.592-.72.888-1.648.888-2.784s-.296-2.056-.888-2.76c-.592-.72-1.384-1.08-2.376-1.08-.576 0-1.144.152-1.704.456-.56.304-.984.672-1.272 1.104v4.584c.288.432.712.8 1.272 1.104.56.304 1.128.456 1.704.456zM164.779 56h-2.52v-1.248c-.896 1.024-2.144 1.536-3.744 1.536a4.292 4.292 0 01-2.808-1.008c-.816-.688-1.224-1.632-1.224-2.832 0-1.232.4-2.168 1.2-2.808.816-.64 1.76-.96 2.832-.96 1.648 0 2.896.496 3.744 1.488V48.44c0-.672-.248-1.2-.744-1.584-.496-.384-1.152-.576-1.968-.576-1.296 0-2.44.488-3.432 1.464l-1.032-1.752c1.312-1.248 2.936-1.872 4.872-1.872 1.424 0 2.584.336 3.48 1.008.896.672 1.344 1.736 1.344 3.192V56zm-5.28-1.44c1.264 0 2.184-.4 2.76-1.2v-1.752c-.576-.8-1.496-1.2-2.76-1.2-.72 0-1.312.192-1.776.576-.464.384-.696.888-.696 1.512s.232 1.128.696 1.512c.464.368 1.056.552 1.776.552zm9.411-8.784c.8-1.104 1.84-1.656 3.12-1.656s2.32.632 3.12 1.896v-6.024h2.52v6c.784-1.248 1.824-1.872 3.12-1.872 1.28 0 2.32.544 3.12 1.632.8 1.088 1.2 2.568 1.2 4.44 0 1.872-.4 3.36-1.2 4.464-.8 1.088-1.84 1.632-3.12 1.632s-2.32-.632-3.12-1.896v6.024h-2.52v-6c-.784 1.248-1.824 1.872-3.12 1.872-1.28 0-2.32-.544-3.12-1.632-.8-1.088-1.2-2.568-1.2-4.44 0-1.872.4-3.352 1.2-4.44zm3.912.576c-.768 0-1.392.36-1.872 1.08-.464.72-.696 1.648-.696 2.784s.232 2.064.696 2.784c.48.704 1.104 1.056 1.872 1.056.448 0 .888-.152 1.32-.456a3.004 3.004 0 001.008-1.104v-4.584c-.224-.432-.56-.8-1.008-1.104-.432-.304-.872-.456-1.32-.456zm7.176 7.704c.768 0 1.384-.36 1.848-1.08.48-.72.72-1.648.72-2.784s-.24-2.056-.72-2.76c-.464-.72-1.08-1.08-1.848-1.08-.448 0-.896.152-1.344.456-.432.304-.76.672-.984 1.104v4.584c.224.432.552.8.984 1.104.448.304.896.456 1.344.456zM190.462 56h-2.424V44.408h2.52v7.8l5.328-7.8h2.52V56h-2.52v-8.016L190.462 56zm22.065 0h-3.168l-3.552-4.776-1.608 1.656V56h-2.52V44.408h2.52V50l5.112-5.592h3.12l-4.824 5.256 4.92 6.336zm17.333-1.512h-2.376l-3.84-4.32 3.84-4.248h2.376l-3.84 4.248 3.84 4.32zm-4.08 0h-2.376l-3.84-4.32 3.84-4.248h2.376l-3.84 4.248 3.84 4.32zm15.558 4.464V56h-9.12V44.408h2.52v9.384h5.328v-9.384h2.52v9.384h1.272v5.16h-2.52zm9.943-2.664c-1.76 0-3.216-.56-4.368-1.68-1.136-1.136-1.704-2.608-1.704-4.416 0-1.696.552-3.128 1.656-4.296 1.12-1.184 2.528-1.776 4.224-1.776 1.712 0 3.088.592 4.128 1.776 1.056 1.184 1.584 2.696 1.584 4.536v.6h-8.952c.096.912.472 1.672 1.128 2.28.656.608 1.512.912 2.568.912.592 0 1.184-.112 1.776-.336.608-.224 1.112-.536 1.512-.936l1.152 1.656c-1.168 1.12-2.736 1.68-4.704 1.68zm3.072-7.032c-.032-.8-.328-1.512-.888-2.136-.544-.624-1.336-.936-2.376-.936-.992 0-1.768.312-2.328.936a3.472 3.472 0 00-.936 2.136h6.528zM261.808 56h-2.52V44.408h2.52v4.56h5.328v-4.56h2.52V56h-2.52v-4.824h-5.328V56zm20.721 0h-2.52v-1.248c-.896 1.024-2.144 1.536-3.744 1.536a4.292 4.292 0 01-2.808-1.008c-.816-.688-1.224-1.632-1.224-2.832 0-1.232.4-2.168 1.2-2.808.816-.64 1.76-.96 2.832-.96 1.648 0 2.896.496 3.744 1.488V48.44c0-.672-.248-1.2-.744-1.584-.496-.384-1.152-.576-1.968-.576-1.296 0-2.44.488-3.432 1.464l-1.032-1.752c1.312-1.248 2.936-1.872 4.872-1.872 1.424 0 2.584.336 3.48 1.008.896.672 1.344 1.736 1.344 3.192V56zm-5.28-1.44c1.264 0 2.184-.4 2.76-1.2v-1.752c-.576-.8-1.496-1.2-2.76-1.2-.72 0-1.312.192-1.776.576-.464.384-.696.888-.696 1.512s.232 1.128.696 1.512c.464.368 1.056.552 1.776.552zM302.808 56h-3.168l-3.552-4.776-1.608 1.656V56h-2.52V44.408h2.52V50l5.112-5.592h3.12l-4.824 5.256 4.92 6.336zm.585.288v-2.064c.496 0 .888-.32 1.176-.96.304-.64.552-1.712.744-3.216l.696-5.64h8.952V56h-2.52v-9.384h-4.2l-.408 3.72c-.224 2.08-.696 3.592-1.416 4.536-.72.944-1.728 1.416-3.024 1.416zM320.658 56h-2.424V44.408h2.52v7.8l5.328-7.8h2.52V56h-2.52v-8.016L320.658 56zm16.568.288c-1.76 0-3.216-.56-4.368-1.68-1.136-1.136-1.704-2.608-1.704-4.416 0-1.696.552-3.128 1.656-4.296 1.12-1.184 2.528-1.776 4.224-1.776 1.712 0 3.088.592 4.128 1.776 1.056 1.184 1.584 2.696 1.584 4.536v.6h-8.952c.096.912.472 1.672 1.128 2.28.656.608 1.512.912 2.568.912.592 0 1.184-.112 1.776-.336.608-.224 1.112-.536 1.512-.936l1.152 1.656c-1.168 1.12-2.736 1.68-4.704 1.68zm3.072-7.032c-.032-.8-.328-1.512-.888-2.136-.544-.624-1.336-.936-2.376-.936-.992 0-1.768.312-2.328.936a3.472 3.472 0 00-.936 2.136h6.528zM347.754 56h-2.52V44.408h2.52v4.56h5.328v-4.56h2.52V56h-2.52v-4.824h-5.328V56zm15.752 0h-2.52v-9.384h-3.312v-2.208h9.168v2.208h-3.336V56zm14.999 0h-2.52v-1.248c-.896 1.024-2.144 1.536-3.744 1.536a4.292 4.292 0 01-2.808-1.008c-.816-.688-1.224-1.632-1.224-2.832 0-1.232.4-2.168 1.2-2.808.816-.64 1.76-.96 2.832-.96 1.648 0 2.896.496 3.744 1.488V48.44c0-.672-.248-1.2-.744-1.584-.496-.384-1.152-.576-1.968-.576-1.296 0-2.44.488-3.432 1.464l-1.032-1.752c1.312-1.248 2.936-1.872 4.872-1.872 1.424 0 2.584.336 3.48 1.008.896.672 1.344 1.736 1.344 3.192V56zm-5.28-1.44c1.264 0 2.184-.4 2.76-1.2v-1.752c-.576-.8-1.496-1.2-2.76-1.2-.72 0-1.312.192-1.776.576-.464.384-.696.888-.696 1.512s.232 1.128.696 1.512c.464.368 1.056.552 1.776.552zm13.852-4.392l-3.84 4.32h-2.376l3.84-4.32-3.84-4.248h2.376l3.84 4.248zm4.08 0l-3.84 4.32h-2.376l3.84-4.32-3.84-4.248h2.376l3.84 4.248zM406.783 56h-7.104V44.408h6.936c1.072 0 1.912.28 2.52.84.608.56.912 1.272.912 2.136 0 .672-.184 1.24-.552 1.704a2.677 2.677 0 01-1.392.936c.624.144 1.144.488 1.56 1.032a2.83 2.83 0 01.624 1.8c0 .928-.312 1.688-.936 2.28-.608.576-1.464.864-2.568.864zm-.528-2.208c.448 0 .8-.112 1.056-.336.256-.24.384-.56.384-.96 0-.368-.128-.68-.384-.936s-.608-.384-1.056-.384h-4.056v2.616h4.056zm-.072-4.824c.4 0 .712-.104.936-.312.24-.224.36-.504.36-.84 0-.368-.12-.656-.36-.864-.224-.224-.536-.336-.936-.336h-3.984v2.352h3.984zM430.737 56h-11.592v-2.208c3.344-2.528 5.616-4.4 6.816-5.616 1.216-1.232 1.824-2.392 1.824-3.48 0-.784-.288-1.384-.864-1.8-.56-.432-1.24-.648-2.04-.648-1.76 0-3.2.64-4.32 1.92l-1.632-1.848a6.577 6.577 0 012.592-1.896 8.395 8.395 0 013.312-.672c1.632 0 3.008.44 4.128 1.32 1.12.88 1.68 2.088 1.68 3.624 0 1.376-.576 2.744-1.728 4.104-1.152 1.36-2.912 2.936-5.28 4.728h7.104V56zm11.754-.432c-.848.48-1.808.72-2.88.72-1.072 0-2.032-.24-2.88-.72a5.534 5.534 0 01-2.016-1.92 9.74 9.74 0 01-1.128-2.64c-.256-.96-.384-1.96-.384-3s.128-2.04.384-3a9.378 9.378 0 011.128-2.616 5.534 5.534 0 012.016-1.92c.848-.48 1.808-.72 2.88-.72 1.072 0 2.032.24 2.88.72.848.48 1.52 1.12 2.016 1.92a9.378 9.378 0 011.128 2.616c.256.96.384 1.96.384 3s-.128 2.04-.384 3a9.74 9.74 0 01-1.128 2.64 5.534 5.534 0 01-2.016 1.92zm-5.568-3.408c.576 1.088 1.472 1.632 2.688 1.632 1.216 0 2.112-.544 2.688-1.632.576-1.088.864-2.472.864-4.152 0-1.072-.112-2.024-.336-2.856-.208-.832-.592-1.52-1.152-2.064-.544-.56-1.232-.84-2.064-.84-.832 0-1.528.28-2.088.84-.544.544-.928 1.232-1.152 2.064-.208.832-.312 1.784-.312 2.856 0 1.68.288 3.064.864 4.152zM459.8 56h-11.592v-2.208c3.344-2.528 5.616-4.4 6.816-5.616 1.216-1.232 1.824-2.392 1.824-3.48 0-.784-.288-1.384-.864-1.8-.56-.432-1.24-.648-2.04-.648-1.76 0-3.2.64-4.32 1.92l-1.632-1.848a6.577 6.577 0 012.592-1.896 8.395 8.395 0 013.312-.672c1.632 0 3.008.44 4.128 1.32 1.12.88 1.68 2.088 1.68 3.624 0 1.376-.576 2.744-1.728 4.104-1.152 1.36-2.912 2.936-5.28 4.728h7.104V56zm8.897 0h-2.808V43.64l-2.616 2.712-1.632-1.704 4.608-4.656h2.448V56zm18.282-11.592v2.208h-6.264V56h-2.52V44.408h8.784zm7.299 11.88c-1.792 0-3.232-.584-4.32-1.752-1.088-1.184-1.632-2.632-1.632-4.344 0-1.712.544-3.152 1.632-4.32 1.088-1.168 2.528-1.752 4.32-1.752 1.808 0 3.256.584 4.344 1.752 1.088 1.168 1.632 2.608 1.632 4.32 0 1.728-.544 3.176-1.632 4.344-1.088 1.168-2.536 1.752-4.344 1.752zm0-2.232c1.04 0 1.856-.368 2.448-1.104.608-.752.912-1.672.912-2.76 0-1.072-.304-1.976-.912-2.712-.592-.752-1.408-1.128-2.448-1.128-1.024 0-1.84.376-2.448 1.128-.592.736-.888 1.64-.888 2.712 0 1.088.296 2.008.888 2.76.608.736 1.424 1.104 2.448 1.104zm7.326 4.896v-5.04c.544-.128.952-.44 1.224-.936.288-.512.52-1.488.696-2.928l.696-5.64h8.952v9.384h1.272v5.16h-2.52V56h-7.8v2.952h-2.52zm4.848-12.336l-.408 3.72c-.16 1.536-.672 2.688-1.536 3.456h6.144v-7.176h-4.2zm9.559 13.92l.384-2.256c.288.128.608.192.96.192.816 0 1.368-.336 1.656-1.008l.576-1.32-4.752-11.736h2.688l3.384 8.688 3.384-8.688h2.712l-5.592 13.68c-.688 1.712-2.016 2.584-3.984 2.616-.528 0-1-.056-1.416-.168z" fill="#fff"/><defs><linearGradient id="paint0_linear" x1="494.363" y1="123.578" x2="494.363" y2="436.457" gradientUnits="userSpaceOnUse"><stop stop-color="#FF6D6D"/><stop offset="1" stop-color="#FF6D6D" stop-opacity="0"/></linearGradient><linearGradient id="paint1_linear" x1="30.592" y1="19.3" x2="-.103" y2="13.497" gradientUnits="userSpaceOnUse"><stop stop-color="#FFA5A5"/><stop offset=".589" stop-color="#FF8484"/><stop offset="1" stop-color="#FF6D6D"/></linearGradient><linearGradient id="paint2_linear" x1="30.944" y1="18.824" x2="-.023" y2="12.753" gradientUnits="userSpaceOnUse"><stop stop-color="#FFA5A5"/><stop offset="1" stop-color="#FF6D6D"/></linearGradient><filter id="filter0_d" x="0" y="0" width="999" height="580" filterUnits="userSpaceOnUse" color-interpolation-filters="sRGB"><feFlood flood-opacity="0" result="BackgroundImageFix"/><feColorMatrix in="SourceAlpha" values="0 0 0 0 0 0 0 0 0 0 0 0 0 0 0 0 0 0 127 0" result="hardAlpha"/><feMorphology radius="50" in="SourceAlpha" result="effect1_dropShadow"/><feOffset dy="59"/><feGaussianBlur stdDeviation="50"/><feColorMatrix values="0 0 0 0 0 0 0 0 0 0 0 0 0 0 0 0 0 0 1 0"/><feBlend in2="BackgroundImageFix" result="effect1_dropShadow"/><feBlend in="SourceGraphic" in2="effect1_dropShadow" result="shape"/></filter><filter id="filter1_d" x="438" y="185" width="110.592" height="111.725" filterUnits="userSpaceOnUse" color-interpolation-filters="sRGB"><feFlood flood-opacity="0" result="BackgroundImageFix"/><feColorMatrix in="SourceAlpha" values="0 0 0 0 0 0 0 0 0 0 0 0 0 0 0 0 0 0 127 0" result="hardAlpha"/><feOffset dy="15"/><feGaussianBlur stdDeviation="20"/><feColorMatrix values="0 0 0 0 1 0 0 0 0 0.426758 0 0 0 0 0.426758 0 0 0 0.4 0"/><feBlend in2="BackgroundImageFix" result="effect1_dropShadow"/><feBlend in="SourceGraphic" in2="effect1_dropShadow" result="shape"/></filter><filter id="filter2_d" x="801.535" y="351.953" width="110.944" height="110.944" filterUnits="userSpaceOnUse" color-interpolation-filters="sRGB"><feFlood flood-opacity="0" result="BackgroundImageFix"/><feColorMatrix in="SourceAlpha" values="0 0 0 0 0 0 0 0 0 0 0 0 0 0 0 0 0 0 127 0" result="hardAlpha"/><feOffset dy="15"/><feGaussianBlur stdDeviation="20"/><feColorMatrix values="0 0 0 0 1 0 0 0 0 0.426758 0 0 0 0 0.426758 0 0 0 0.4 0"/><feBlend in2="BackgroundImageFix" result="effect1_dropShadow"/><feBlend in="SourceGraphic" in2="effect1_dropShadow" result="shape"/></filter></defs></svg>