<svg width="1920" height="804" fill="none" xmlns="http://www.w3.org/2000/svg"><path opacity=".7" d="M2654.6 332.484C2074.88 869.478 184.803 832.316-388.065 767.877c-573.871-200.002-1404.795-583.368-137.519-516.81 1584.094 83.197 3087.024 49.824 3530.394-23.972 443.36-73.796 578.61 241.701-350.21 105.389z" fill="url(#paint0_linear)"/><path opacity=".7" d="M2130.3 471.712C1682.39-65.283 222.067-28.121-220.546 36.319c-443.387 200.002-1085.384 583.367-106.25 516.81 1223.912-83.198 2385.116-49.825 2727.676 23.972 342.55 73.796 447.05-241.701-270.58-105.389z" fill="url(#paint1_linear)"/><defs><linearGradient id="paint0_linear" x1="2379.86" y1="2840.24" x2="2410.21" y2="575.895" gradientUnits="userSpaceOnUse"><stop offset=".503" stop-color="#D6DBF3"/><stop offset="1" stop-color="#B9BDD3" stop-opacity="0"/></linearGradient><linearGradient id="paint1_linear" x1="1918.02" y1="-2036.04" x2="1957.3" y2="228.027" gradientUnits="userSpaceOnUse"><stop offset=".503" stop-color="#D6DBF3"/><stop offset="1" stop-color="#B9BDD3" stop-opacity="0"/></linearGradient></defs></svg>