<svg width="1920" height="708" fill="none" xmlns="http://www.w3.org/2000/svg"><path opacity=".7" d="M2477.16 280.47C1961.81 809.868 178.551 713.952-497.219 676.106-1174.17 558.642-2154.35 333.487-659.44 372.577 1209.2 421.44 2265.55 46.632 2788.55 3.29c523.01-43.341 784.27 357.238-311.39 277.18z" fill="url(#paint0_linear)"/><path opacity=".7" d="M3063.48 512.165C2416.8-70.952 308.424-30.598-330.61 39.376-970.762 256.557-1897.65 672.85-484.012 600.575c1767.052-90.343 3443.572-54.104 3938.152 26.031 494.57 80.135 645.43-262.461-390.66-114.441z" fill="url(#paint1_linear)"/><defs><linearGradient id="paint0_linear" x1="3505.04" y1="3495.64" x2="2950.88" y2="80.805" gradientUnits="userSpaceOnUse"><stop offset=".369" stop-color="#D6DBF3"/><stop offset="1" stop-color="#B9BDD3" stop-opacity="0"/></linearGradient><linearGradient id="paint1_linear" x1="2757" y1="-2210.98" x2="2789.09" y2="247.871" gradientUnits="userSpaceOnUse"><stop offset=".503" stop-color="#D6DBF3"/><stop offset="1" stop-color="#B9BDD3" stop-opacity="0"/></linearGradient></defs></svg>