<svg width="177" height="154" fill="none" xmlns="http://www.w3.org/2000/svg"><path d="M154.191 144.621c-1.765 6.614 9.269-12.719 9.269-12.719 4.121-9.213-.387-14.37-9.269-16.902v29.621z" fill="#FFE5B4"/><g filter="url(#filter0_d)"><path d="M165 27.193v98.5c-27.2-26.4-102.667-17.667-137-10l20.5-49.5-20.5-50c56-11.2 114.667 2.666 137 11z" fill="#FFD179"/></g><path d="M94.156 76h-6.12l-6.012-8.784L75.976 76h-6.084l8.712-12.312-8.172-11.7h6.084l5.508 8.208 5.436-8.208h6.156l-8.172 11.664L94.156 76zm7.199 0h-4.932V51.988h5.112v15.516l11.124-15.516h5.256V76h-5.112V59.908L101.355 76zm31.986 0h-5.148V56.488h-7.02v-4.5h19.152v4.5h-6.984V76z" fill="#B18C54"/><defs><filter id="filter0_d" x="0" y="0" width="177" height="153.693" filterUnits="userSpaceOnUse" color-interpolation-filters="sRGB"><feFlood flood-opacity="0" result="BackgroundImageFix"/><feColorMatrix in="SourceAlpha" values="0 0 0 0 0 0 0 0 0 0 0 0 0 0 0 0 0 0 127 0" result="hardAlpha"/><feOffset dx="-8" dy="8"/><feGaussianBlur stdDeviation="10"/><feColorMatrix values="0 0 0 0 0 0 0 0 0 0 0 0 0 0 0 0 0 0 0.1 0"/><feBlend in2="BackgroundImageFix" result="effect1_dropShadow"/><feBlend in="SourceGraphic" in2="effect1_dropShadow" result="shape"/></filter></defs></svg>