<svg width="48" height="47" fill="none" xmlns="http://www.w3.org/2000/svg"><path d="M24.308 46.822c12.977 0 23.496-10.459 23.496-23.362C47.804 10.559 37.284.1 24.308.1 11.332.099.812 10.559.812 23.46c0 12.903 10.52 23.362 23.496 23.362z" fill="#fff"/><path fill-rule="evenodd" clip-rule="evenodd" d="M9.922 30.49h7.234c1.636 0 3.08-.318 4.33-.954a6.944 6.944 0 002.916-2.725c.692-1.18 1.038-2.571 1.038-4.171s-.346-2.99-1.038-4.172a6.95 6.95 0 00-2.915-2.725c-1.251-.635-2.695-.953-4.33-.953H9.922v15.7zm4.949-4.127v-7.446h2.075c1.063 0 1.912.325 2.548.975.637.65.955 1.567.954 2.748 0 1.181-.318 2.097-.954 2.747-.636.65-1.485.976-2.547.976H14.87zm16.733-6.818v-1.323h-4.509V30.49h4.74v-5.45c0-1.764.81-2.646 2.432-2.647a6.81 6.81 0 011.048.09v-4.486c-1.635 0-2.872.516-3.711 1.548zm6.982 11.169a2.64 2.64 0 001.982-.819c.524-.545.786-1.244.786-2.097 0-.852-.262-1.544-.786-2.074a2.859 2.859 0 00-1.982-.797c-.74 0-1.45.286-1.981.797-.524.53-.787 1.222-.787 2.074 0 .852.263 1.551.787 2.097a2.62 2.62 0 001.981.819z" fill="url(#paint0_linear)"/><defs><linearGradient id="paint0_linear" x1="25.638" y1="30.715" x2="25.638" y2="14.79" gradientUnits="userSpaceOnUse"><stop stop-color="#121212"/><stop offset="1" stop-color="#414141"/></linearGradient></defs></svg>