<svg width="240" height="48" fill="none" xmlns="http://www.w3.org/2000/svg"><path d="M24.138 48c13.33 0 24.138-10.745 24.138-24S37.469 0 24.138 0C10.807 0 0 10.745 0 24s10.807 24 24.138 24z" fill="url(#paint0_linear)"/><path fill-rule="evenodd" clip-rule="evenodd" d="M9.36 31.22h7.431c1.68 0 3.163-.326 4.449-.978a7.134 7.134 0 002.995-2.8c.71-1.213 1.066-2.642 1.066-4.285 0-1.644-.355-3.073-1.066-4.286a7.14 7.14 0 00-2.995-2.799c-1.285-.653-2.768-.98-4.448-.98H9.359v16.129zm5.083-4.239v-7.649h2.133c1.091 0 1.964.334 2.617 1.002.654.669.98 1.61.98 2.823 0 1.213-.326 2.154-.98 2.822-.653.668-1.526 1.002-2.617 1.002h-2.133zm17.19-7.004v-1.36h-4.631v12.604h4.868v-5.599c0-1.812.833-2.718 2.5-2.719.36.003.72.034 1.076.093v-4.608c-1.68 0-2.95.53-3.813 1.59zm7.174 11.474a2.71 2.71 0 002.035-.84c.54-.561.808-1.28.808-2.155 0-.876-.27-1.586-.808-2.131a2.937 2.937 0 00-2.035-.818c-.76 0-1.49.293-2.036.818-.538.545-.808 1.256-.808 2.131 0 .875.27 1.593.808 2.154a2.69 2.69 0 002.036.841z" fill="#fff"/><path fill-rule="evenodd" clip-rule="evenodd" d="M66.384 30.879h6.623c1.72 0 3.238-.342 4.555-1.026a7.521 7.521 0 003.067-2.857c.728-1.22 1.093-2.615 1.093-4.181 0-1.567-.364-2.961-1.093-4.182a7.523 7.523 0 00-3.067-2.857c-1.317-.683-2.835-1.025-4.555-1.025h-6.623v16.128zm1.72-1.475v-13.18h4.81c1.425 0 2.672.28 3.742.841a6.144 6.144 0 012.486 2.327 7.075 7.075 0 010 6.844 6.14 6.14 0 01-2.486 2.327c-1.07.56-2.317.841-3.742.84h-4.81zm22.123 1.59a6.397 6.397 0 003.183-.796 5.742 5.742 0 002.22-2.2 6.71 6.71 0 000-6.36 5.664 5.664 0 00-2.22-2.188 6.857 6.857 0 00-6.367 0 5.741 5.741 0 00-2.231 2.189 6.626 6.626 0 000 6.359 5.82 5.82 0 002.23 2.201 6.405 6.405 0 003.185.796v-.002zm0-1.452a4.643 4.643 0 01-2.336-.588 4.186 4.186 0 01-1.627-1.67 5.428 5.428 0 010-4.93 4.189 4.189 0 011.627-1.67 4.932 4.932 0 014.671 0c.69.39 1.25.97 1.615 1.67a5.524 5.524 0 010 4.93 4.113 4.113 0 01-1.615 1.67c-.712.398-1.518.6-2.335.588zm14.64 1.451a6.342 6.342 0 002.812-.61 4.659 4.659 0 001.975-1.786l-1.231-.83a3.767 3.767 0 01-1.534 1.337 4.682 4.682 0 01-2.022.438 4.821 4.821 0 01-2.382-.588 4.163 4.163 0 01-1.65-1.659 5.46 5.46 0 010-4.942 4.143 4.143 0 011.65-1.67 4.82 4.82 0 012.382-.588c.7-.006 1.392.147 2.022.45.624.303 1.154.77 1.534 1.347l1.231-.83a4.67 4.67 0 00-1.963-1.785 6.334 6.334 0 00-2.824-.61 6.637 6.637 0 00-3.242.783 5.723 5.723 0 00-2.242 2.189 6.649 6.649 0 000 6.37 5.692 5.692 0 002.242 2.2 6.634 6.634 0 003.242.784zm14.013-2.027a2.451 2.451 0 01-.826.461 3.052 3.052 0 01-.987.161c-.682 0-1.205-.188-1.569-.564-.364-.377-.546-.926-.546-1.648v-7.234h3.718v-1.383h-3.718v-2.65h-1.649v2.65h-2.186v1.383h2.186v7.327c0 1.121.31 1.989.929 2.603.62.614 1.503.922 2.649.922.485.001.968-.073 1.429-.22a3.144 3.144 0 001.151-.633l-.581-1.175zm8.132 2.028a6.395 6.395 0 003.185-.796 5.732 5.732 0 002.218-2.2 6.704 6.704 0 000-6.359 5.66 5.66 0 00-2.218-2.189 6.856 6.856 0 00-6.367 0 5.748 5.748 0 00-2.232 2.189 6.635 6.635 0 00-.813 3.18c0 1.11.28 2.203.813 3.179a5.825 5.825 0 002.232 2.201 6.39 6.39 0 003.182.796v-.001zm0-1.452a4.641 4.641 0 01-2.335-.587 4.195 4.195 0 01-1.626-1.67 5.423 5.423 0 010-4.931 4.196 4.196 0 011.626-1.67 4.936 4.936 0 014.672 0 4.116 4.116 0 011.614 1.67 5.527 5.527 0 010 4.93 4.109 4.109 0 01-1.614 1.67 4.643 4.643 0 01-2.337.588zm11.155-8.41V18.76h-1.58v12.12h1.651v-6.176c0-1.413.363-2.511 1.091-3.295.728-.783 1.735-1.175 3.021-1.175l.396.023v-1.59c-1.132 0-2.081.208-2.847.622a3.981 3.981 0 00-1.732 1.844zm21.24 9.885a9.059 9.059 0 003.359-.61 7.028 7.028 0 002.614-1.763l-1.093-1.084c-1.254 1.29-2.858 1.936-4.809 1.936a7.113 7.113 0 01-3.51-.876 6.42 6.42 0 01-2.474-2.396 6.947 6.947 0 010-6.82 6.423 6.423 0 012.474-2.396 7.12 7.12 0 013.51-.876c1.936 0 3.539.638 4.809 1.913l1.093-1.084a6.94 6.94 0 00-2.603-1.75 9.124 9.124 0 00-3.346-.6 9.007 9.007 0 00-4.369 1.06 7.77 7.77 0 00-3.055 2.938 8.566 8.566 0 000 8.41 7.778 7.778 0 003.043 2.937 8.936 8.936 0 004.357 1.06zm13.758-.023a6.403 6.403 0 003.184-.796 5.735 5.735 0 002.219-2.2 6.703 6.703 0 000-6.359 5.655 5.655 0 00-2.219-2.189 6.856 6.856 0 00-6.368 0 5.725 5.725 0 00-2.23 2.189 6.625 6.625 0 000 6.359 5.807 5.807 0 002.23 2.2 6.396 6.396 0 003.184.796zm0-1.452a4.641 4.641 0 01-2.335-.587 4.182 4.182 0 01-1.627-1.67 5.422 5.422 0 010-4.931 4.183 4.183 0 011.627-1.67 4.929 4.929 0 014.67 0c.689.39 1.25.97 1.616 1.67a5.526 5.526 0 010 4.93c-.366.7-.927 1.28-1.616 1.67a4.636 4.636 0 01-2.335.588zm15.802-10.875a6.033 6.033 0 00-2.777.61 4.566 4.566 0 00-1.87 1.717v-2.236h-1.582v12.12h1.651V24.52c0-1.367.383-2.439 1.151-3.215.767-.775 1.808-1.163 3.124-1.163 1.179 0 2.085.33 2.72.99.634.661.952 1.621.953 2.88v6.867h1.65V23.85c0-1.689-.453-2.975-1.36-3.859-.906-.883-2.126-1.325-3.66-1.325zm15.36 10.3a2.462 2.462 0 01-.824.46 3.063 3.063 0 01-.988.161c-.682 0-1.205-.188-1.569-.564-.363-.377-.546-.926-.546-1.648v-7.234h3.718v-1.383H200.4v-2.65h-1.65v2.65h-2.184v1.383h2.184v7.327c0 1.121.31 1.989.929 2.603.62.614 1.503.922 2.651.922a4.68 4.68 0 001.429-.22 3.128 3.128 0 001.149-.633l-.581-1.175zm13.805-4.148a6.505 6.505 0 00-.768-3.191 5.566 5.566 0 00-2.115-2.177 5.944 5.944 0 00-3.043-.784 6.02 6.02 0 00-3.057.784 5.61 5.61 0 00-2.137 2.189 6.432 6.432 0 00-.779 3.18 6.23 6.23 0 00.814 3.179 5.754 5.754 0 002.265 2.2 6.837 6.837 0 003.335.795c.92.01 1.833-.162 2.684-.507a5.223 5.223 0 002.033-1.475l-.929-1.06a4.568 4.568 0 01-1.65 1.187 5.313 5.313 0 01-2.092.403c-1.347 0-2.463-.388-3.346-1.163-.884-.776-1.371-1.794-1.464-3.053h10.225l.024-.507zm-5.926-4.746c1.192 0 2.187.372 2.985 1.117s1.251 1.717 1.36 2.915h-8.668c.108-1.198.562-2.17 1.36-2.915.797-.745 1.785-1.117 2.963-1.117zm18.613 10.806l-4.88-6.221 4.602-5.899h-1.813l-3.671 4.747-3.673-4.747h-1.859l4.602 5.899-4.834 6.22h1.859l3.905-5.068 3.88 5.069h1.882zm8.599-1.913a2.457 2.457 0 01-.825.461 3.062 3.062 0 01-.987.161c-.683 0-1.206-.188-1.569-.564-.365-.376-.547-.925-.546-1.648v-7.234h3.718v-1.383h-3.718v-2.65h-1.651v2.65h-2.184v1.383h2.184v7.327c0 1.121.31 1.989.93 2.603.62.614 1.503.922 2.649.922.485.001.968-.073 1.43-.22a3.14 3.14 0 001.15-.633l-.581-1.175z" fill="#2A2A2A"/><defs><linearGradient id="paint0_linear" x1="24.138" y1="48" x2="24.138" y2="0" gradientUnits="userSpaceOnUse"><stop stop-color="#121212"/><stop offset="1" stop-color="#414141"/></linearGradient></defs></svg>