<svg width="49" height="48" fill="none" xmlns="http://www.w3.org/2000/svg"><path d="M24.138 48c13.33 0 24.138-10.745 24.138-24S37.469 0 24.138 0C10.807 0 0 10.745 0 24s10.807 24 24.138 24z" fill="url(#paint0_linear)"/><path fill-rule="evenodd" clip-rule="evenodd" d="M9.36 31.22h7.431c1.68 0 3.163-.326 4.449-.978a7.134 7.134 0 002.995-2.8c.71-1.213 1.066-2.642 1.066-4.285 0-1.644-.355-3.073-1.066-4.286a7.14 7.14 0 00-2.995-2.799c-1.285-.653-2.768-.98-4.448-.98H9.359v16.129zm5.083-4.239v-7.649h2.133c1.091 0 1.964.334 2.617 1.002.654.669.98 1.61.98 2.823 0 1.213-.326 2.154-.98 2.822-.653.668-1.526 1.002-2.617 1.002h-2.133zm17.19-7.004v-1.36h-4.631v12.604h4.868v-5.599c0-1.812.833-2.718 2.5-2.719.36.003.72.034 1.076.093v-4.608c-1.68 0-2.95.53-3.813 1.59zm7.174 11.474a2.71 2.71 0 002.035-.84c.54-.561.808-1.28.808-2.155 0-.876-.27-1.586-.808-2.131a2.937 2.937 0 00-2.035-.818c-.76 0-1.49.293-2.036.818-.538.545-.808 1.256-.808 2.131 0 .875.27 1.593.808 2.154a2.69 2.69 0 002.036.841z" fill="#fff"/><defs><linearGradient id="paint0_linear" x1="24.138" y1="48" x2="24.138" y2="0" gradientUnits="userSpaceOnUse"><stop stop-color="#121212"/><stop offset="1" stop-color="#414141"/></linearGradient></defs></svg>