<svg width="1920" height="1658" fill="none" xmlns="http://www.w3.org/2000/svg"><path opacity=".7" d="M3345.46 622.492C2683.43-53.088 575.778 41.222-61.529 138.122-696.108 409.199-1612.27 922.173-200.292 805.443 1564.68 659.531 3242.41 665.373 3739.16 749.254c496.75 83.88 638.68-324.764-393.7-126.762z" fill="url(#paint0_linear)"/><path opacity=".7" d="M3348.55 895.057C2683 1730.3 575.591 1624.94-61.293 1508.88-694.56 1178.34-1608.2 551.378-196.663 687.898 1567.76 858.547 3245.72 842.782 3742.95 736.959c497.23-105.822 637.09 396.631-394.4 158.098z" fill="url(#paint1_linear)"/><defs><linearGradient id="paint0_linear" x1="2967.78" y1="-2592.39" x2="3076.91" y2="315.396" gradientUnits="userSpaceOnUse"><stop offset=".503" stop-color="#D6DBF3"/><stop offset="1" stop-color="#B9BDD3" stop-opacity="0"/></linearGradient><linearGradient id="paint1_linear" x1="2954.41" y1="4855.58" x2="3101.58" y2="1275.52" gradientUnits="userSpaceOnUse"><stop offset=".503" stop-color="#D6DBF3"/><stop offset="1" stop-color="#B9BDD3" stop-opacity="0"/></linearGradient></defs></svg>