<svg width="1920" height="1899" fill="none" xmlns="http://www.w3.org/2000/svg"><path opacity=".7" d="M3283.49 582.221C2624.85 59.641 516.958 143.364-120.755 221.903-756.592 435.996-1675.17 839.741-262.77 741.975c1765.5-122.208 3443.02-125.874 3939.3-63.02 496.28 62.855 640.21-255.898-393.04-96.734z" fill="url(#paint0_linear)"/><path opacity=".7" d="M2720.3 942.736C2054.86 1992.24 82.523 1629.06-664.643 1488.32-1399.49 1182.5-2454.05 625.554-793.558 844.393 1282.06 1117.94 2524.36 438.665 3115.07 397.076c590.7-41.59 813.44 812.584-394.77 545.66z" fill="url(#paint1_linear)"/><defs><linearGradient id="paint0_linear" x1="2921.59" y1="-1918.15" x2="2998.78" y2="345.119" gradientUnits="userSpaceOnUse"><stop offset=".503" stop-color="#D6DBF3"/><stop offset="1" stop-color="#B9BDD3" stop-opacity="0"/></linearGradient><linearGradient id="paint1_linear" x1="3315.81" y1="7699.98" x2="1858.87" y2="876.721" gradientUnits="userSpaceOnUse"><stop offset=".369" stop-color="#D6DBF3"/><stop offset="1" stop-color="#B9BDD3" stop-opacity="0"/></linearGradient></defs></svg>