<svg width="58" height="53" fill="none" xmlns="http://www.w3.org/2000/svg"><path d="M5.42 1.414H3.063a1.652 1.652 0 00-1.65 1.65v30.262H3.77V3.064a1.652 1.652 0 011.65-1.65zM3.77 38.747V34.74H1.413v4.007a1.652 1.652 0 001.65 1.65H5.42a1.652 1.652 0 01-1.65-1.65z" fill="#D4E1F4"/><path d="M51.403 17.397a.81.81 0 00-.62-.041l-8.356 2.755-1.2-8.367a.81.81 0 00-.434-.69.795.795 0 00-.322-.088c-1.202-.062-3.598.291-6.14 3.356a10.188 10.188 0 001.282 14.313 10.03 10.03 0 007.396 2.333 10.052 10.052 0 006.878-3.606 10.186 10.186 0 001.927-9.476.807.807 0 00-.41-.489zm-2.602 9.06A8.735 8.735 0 0135.42 15.224c1.837-2.216 3.516-2.74 4.472-2.833l1.226 8.554a.805.805 0 001.066.734l8.436-2.78a8.77 8.77 0 01-1.82 7.556z" fill="#FF5E5E"/><path d="M42.794 17.968a.88.88 0 001.127.717l6.378-1.947a.88.88 0 00.597-1.112c-.19-.6-.766-2.13-2.024-3.402-1.633-1.65-3.818-2.241-6.318-1.71a.877.877 0 00-.692.954l.932 6.5zm5.073-4.75a7.271 7.271 0 011.496 2.327l-5.257 1.605-.766-5.342c1.816-.264 3.337.209 4.527 1.411zM6.17 34.74a.707.707 0 00.707-.706V12.723h3.614v21.31a.707.707 0 001.415 0V12.26a.95.95 0 00-.95-.95H6.412a.95.95 0 00-.95.95v21.775a.707.707 0 00.708.707zm7.54 0a.706.706 0 00.706-.707V17.581h3.615v16.452a.707.707 0 101.414 0V17.117a.951.951 0 00-.949-.95h-4.545a.95.95 0 00-.949.95v16.916a.707.707 0 00.707.707zm7.54.002a.707.707 0 00.706-.708V23.656h3.615v10.378a.707.707 0 001.414 0V23.192a.95.95 0 00-.949-.95h-4.545a.95.95 0 00-.949.95v10.842a.707.707 0 00.707.708z" fill="#FF5E5E"/><path d="M25.857 47.62H18.36a.707.707 0 00-.707.707v3.056a.707.707 0 00.707.707h21.642a.707.707 0 00.707-.707v-3.056a.707.707 0 00-.707-.707h-7.495v-5.808h22.41a3.068 3.068 0 003.064-3.064V3.064A3.068 3.068 0 0054.918 0H3.064A3.068 3.068 0 000 3.064v35.684a3.068 3.068 0 003.064 3.064h22.793v5.808zm13.439 3.056H19.069v-1.642h20.227v1.642zm-8.202-3.056H27.27v-5.808h3.823v5.808zM3.064 1.414h51.854a1.652 1.652 0 011.65 1.65v30.262H1.414V3.064a1.652 1.652 0 011.65-1.65zm-1.65 37.334V34.74h55.154v4.007a1.652 1.652 0 01-1.65 1.65H3.064a1.651 1.651 0 01-1.65-1.65z" fill="#262626"/></svg>